<svg width="22" height="24" viewBox="0 0 22 24" fill="none" xmlns="http://www.w3.org/2000/svg">
<g filter="url(#filter0_d)">
<path d="M8.60806 9H7.36264C7.15714 9 6.98901 8.83125 6.98901 8.625V7.375C6.98901 7.16875 7.15714 7 7.36264 7H8.60806C8.81355 7 8.98169 7.16875 8.98169 7.375V8.625C8.98169 8.83125 8.81355 9 8.60806 9ZM11.9707 8.625V7.375C11.9707 7.16875 11.8026 7 11.5971 7H10.3516C10.1462 7 9.97802 7.16875 9.97802 7.375V8.625C9.97802 8.83125 10.1462 9 10.3516 9H11.5971C11.8026 9 11.9707 8.83125 11.9707 8.625ZM14.9597 8.625V7.375C14.9597 7.16875 14.7916 7 14.5861 7H13.3407C13.1352 7 12.967 7.16875 12.967 7.375V8.625C12.967 8.83125 13.1352 9 13.3407 9H14.5861C14.7916 9 14.9597 8.83125 14.9597 8.625ZM11.9707 11.625V10.375C11.9707 10.1687 11.8026 10 11.5971 10H10.3516C10.1462 10 9.97802 10.1687 9.97802 10.375V11.625C9.97802 11.8313 10.1462 12 10.3516 12H11.5971C11.8026 12 11.9707 11.8313 11.9707 11.625ZM8.98169 11.625V10.375C8.98169 10.1687 8.81355 10 8.60806 10H7.36264C7.15714 10 6.98901 10.1687 6.98901 10.375V11.625C6.98901 11.8313 7.15714 12 7.36264 12H8.60806C8.81355 12 8.98169 11.8313 8.98169 11.625ZM14.9597 11.625V10.375C14.9597 10.1687 14.7916 10 14.5861 10H13.3407C13.1352 10 12.967 10.1687 12.967 10.375V11.625C12.967 11.8313 13.1352 12 13.3407 12H14.5861C14.7916 12 14.9597 11.8313 14.9597 11.625ZM17.9487 3.5V14.5C17.9487 15.3281 17.2793 16 16.4542 16H5.49451C4.66941 16 4 15.3281 4 14.5V3.5C4 2.67188 4.66941 2 5.49451 2H6.98901V0.375C6.98901 0.16875 7.15714 0 7.36264 0H8.60806C8.81355 0 8.98169 0.16875 8.98169 0.375V2H12.967V0.375C12.967 0.16875 13.1352 0 13.3407 0H14.5861C14.7916 0 14.9597 0.16875 14.9597 0.375V2H16.4542C17.2793 2 17.9487 2.67188 17.9487 3.5ZM16.4542 14.3125V5H5.49451V14.3125C5.49451 14.4156 5.57857 14.5 5.68132 14.5H16.2674C16.3701 14.5 16.4542 14.4156 16.4542 14.3125Z" fill="black"/>
</g>
<defs>
<filter id="filter0_d" x="0" y="0" width="21.9487" height="24" filterUnits="userSpaceOnUse" color-interpolation-filters="sRGB">
<feFlood flood-opacity="0" result="BackgroundImageFix"/>
<feColorMatrix in="SourceAlpha" type="matrix" values="0 0 0 0 0 0 0 0 0 0 0 0 0 0 0 0 0 0 127 0" result="hardAlpha"/>
<feOffset dy="4"/>
<feGaussianBlur stdDeviation="2"/>
<feComposite in2="hardAlpha" operator="out"/>
<feColorMatrix type="matrix" values="0 0 0 0 0 0 0 0 0 0 0 0 0 0 0 0 0 0 0.25 0"/>
<feBlend mode="normal" in2="BackgroundImageFix" result="effect1_dropShadow"/>
<feBlend mode="normal" in="SourceGraphic" in2="effect1_dropShadow" result="shape"/>
</filter>
</defs>
</svg>
